<svg width="16" height="12" viewBox="0 0 16 12" fill="none" xmlns="http://www.w3.org/2000/svg">
<path d="M6.48286 0.918948C6.35829 0.567592 6.23257 0.213337 6.23029 0.208698C6.17029 0.0724463 6.03143 -0.0133636 5.88514 0.00171105C5.79257 0.00924839 3.60229 0.200581 2.19886 1.34568C1.46514 2.03331 0 6.05362 0 9.52949C0 9.59095 0.0154286 9.65067 0.0457143 9.70401C1.05771 11.5072 3.81657 11.9791 4.44514 11.9994C4.44914 12 4.45257 12 4.456 12C4.56686 12 4.67086 11.9461 4.73714 11.8551L5.41714 10.9204C4.29371 10.7471 4.09086 10.5209 4.04343 10.4856C3.78971 10.296 3.60229 10.0304 3.82971 9.69531C4.00457 9.43498 4.37143 9.34917 4.65257 9.49586C4.94057 9.63211 5.71143 10.0704 8 10.0588C10.2726 10.0519 11.2703 9.56892 11.2846 9.55848C11.6663 9.38396 11.964 9.45586 12.1497 9.71445C12.3709 10.0664 12.2131 10.3047 11.9606 10.4937C11.9131 10.5291 11.7983 10.6282 10.5914 10.9181L11.2629 11.8545C11.3286 11.9461 11.4331 11.9994 11.544 11.9994C11.548 11.9994 11.5514 11.9994 11.5549 11.9988C12.184 11.9785 14.9429 11.5066 15.9543 9.70343C15.9846 9.65009 16 9.59037 16 9.52891C16 6.05362 14.5349 2.03331 13.7829 1.3306C12.3977 0.201161 10.2074 0.00982819 10.1149 0.00171105C9.96857 -0.0110445 9.82971 0.0730261 9.76971 0.208698C9.76743 0.213337 9.64514 0.573389 9.52686 0.920687C9.52686 0.920687 8.59486 0.782116 8 0.782116C7.40514 0.782116 6.48286 0.918948 6.48286 0.918948ZM5.71429 8.31946C5.08286 8.31946 4.57143 7.54659 4.57143 6.59225C4.57143 5.6379 5.08286 4.86504 5.71429 4.86504C6.348 4.76937 6.84343 5.6379 6.85714 6.59225C6.85714 7.54659 6.34571 8.31946 5.71429 8.31946ZM10.2857 8.31946C9.65429 8.31946 9.14286 7.54137 9.14286 6.58181C9.14286 5.62225 9.65429 4.84416 10.2857 4.84416C10.9171 4.84416 11.4286 5.62225 11.4286 6.58181C11.4286 7.54137 10.9171 8.31946 10.2857 8.31946Z" fill="#E3D8D8"/>
</svg>
