<svg width="14" height="14" viewBox="0 0 14 14" fill="none" xmlns="http://www.w3.org/2000/svg">
<path d="M7.00005 0C3.15524 0 0 3.15521 0 7C0 10.2809 2.30223 13.2613 5.35942 14V11.6841C5.0565 11.7504 4.77772 11.7524 4.46935 11.6615C4.05566 11.5394 3.71953 11.2638 3.47001 10.8436C3.31097 10.5753 3.02909 10.2843 2.73504 10.3057L2.66294 9.4886C3.29879 9.43413 3.84888 9.87601 4.1754 10.4246C4.32045 10.6685 4.4874 10.8116 4.70167 10.8748C4.90877 10.9358 5.13116 10.9065 5.39028 10.815C5.45533 10.2962 5.69299 10.102 5.87254 9.82858V9.82816C4.04926 9.55621 3.32261 8.58893 3.03422 7.82544C2.65204 6.81169 2.85712 5.54523 3.53292 4.74489C3.54606 4.72929 3.56978 4.68849 3.56059 4.65997C3.25073 3.72398 3.62831 2.94971 3.64219 2.86757C3.9998 2.97331 4.05791 2.76118 5.19557 3.45236L5.39221 3.5705C5.47445 3.61952 5.4486 3.59154 5.53085 3.58534C6.00584 3.45631 6.50658 3.38507 6.99995 3.37866C7.49705 3.38507 7.99458 3.45631 8.48923 3.59058L8.55289 3.59698C8.54734 3.59613 8.5702 3.59293 8.60854 3.57007C10.0297 2.70927 9.97862 2.99062 10.3597 2.86671C10.3735 2.94896 10.7461 3.73584 10.4395 4.65997C10.3982 4.78729 11.6716 5.95335 10.9658 7.82512C10.6774 8.58893 9.95085 9.55621 8.12756 9.82816V9.82858C8.36127 10.1848 8.64208 10.3743 8.64058 11.1091V14C11.6979 13.2613 14 10.2809 14 7C14.0001 3.15521 10.8449 0 7.00005 0Z" fill="#E3D8D8"/>
</svg>
