<svg width="32" height="32" viewBox="0 0 32 32" fill="none" xmlns="http://www.w3.org/2000/svg">
<rect width="32" height="32" fill="#070606"/>
<path d="M7.45345 16.3226L7.27344 16.5024V16.5012L7.87622 15.8984V15.8996L7.65654 16.1196L7.45345 16.3226Z" fill="#F7F7F7"/>
<path d="M11.0156 17.2959V17.3485C11.0156 17.4084 10.9944 17.4577 10.9521 17.4997C10.9101 17.5418 10.8608 17.5629 10.8046 17.5629H7.97428C7.91467 17.5629 7.8654 17.5418 7.8231 17.4997L7.27656 16.9484C7.27464 16.9464 7.27344 16.9436 7.27344 16.9407V16.6984C7.27344 16.6955 7.27464 16.6929 7.27656 16.6907L7.77383 16.1934C7.81156 16.1557 7.87622 16.1824 7.87622 16.236V16.6208C7.87622 16.6806 7.89713 16.7299 7.93943 16.7717L8.1889 17.0214C8.23096 17.0601 8.28023 17.0813 8.33671 17.0813H10.8046C10.8608 17.0813 10.9098 17.1022 10.9521 17.1445C10.9942 17.1868 11.0156 17.2361 11.0156 17.2959Z" fill="#F7F7F7"/>
<path d="M19.4685 17.5809C19.4099 17.5809 19.3616 17.5602 19.32 17.5186C19.2787 17.4773 19.2577 17.4288 19.2577 17.3701V15.5159C19.2577 15.4572 19.2371 15.4089 19.1991 15.3673C19.1578 15.326 19.1092 15.3051 19.0506 15.3051H17.4898C17.4311 15.3051 17.3828 15.3258 17.3412 15.3673L17.0961 15.6125C17.0548 15.6538 17.0339 15.7024 17.0339 15.761V16.6553C17.0339 16.714 17.0545 16.7623 17.0961 16.8039L17.3412 17.049C17.3826 17.087 17.4311 17.1077 17.4898 17.1077H18.5706C18.6292 17.1077 18.6776 17.1283 18.7191 17.1699C18.7571 17.2112 18.7778 17.2598 18.7778 17.3184V17.3703C18.7778 17.429 18.7571 17.4773 18.7191 17.5189C18.6778 17.5602 18.6292 17.5811 18.5706 17.5811H17.1307C17.0721 17.5811 17.0238 17.5605 16.9858 17.5189L16.1638 16.6935C16.1225 16.6556 16.1016 16.6073 16.1016 16.5486V15.8684C16.1016 15.8098 16.1222 15.7615 16.1638 15.7199L16.9858 14.8946C17.0238 14.8566 17.0721 14.8359 17.1307 14.8359H19.0508C19.1094 14.8359 19.1578 14.8566 19.1993 14.8946C19.2373 14.9359 19.258 14.9845 19.258 15.0431V15.0984C19.258 15.157 19.2787 15.2053 19.3202 15.2433C19.3616 15.2847 19.4101 15.3056 19.4688 15.3056H19.9833C20.042 15.3056 20.0903 15.3262 20.1319 15.3678C20.1698 15.4092 20.1905 15.4577 20.1905 15.5163V17.3708C20.1905 17.4295 20.1698 17.4778 20.1319 17.5194C20.0905 17.5607 20.042 17.5816 19.9833 17.5816H19.4685V17.5809Z" fill="#F7F7F7"/>
<path d="M23.9012 17.5849C23.8433 17.5849 23.7957 17.5645 23.7582 17.5236C23.7174 17.4828 23.6969 17.4352 23.6969 17.3773V15.7912C23.6969 15.7333 23.6765 15.6857 23.6356 15.6449L23.3941 15.4033C23.3532 15.3625 23.3057 15.342 23.2477 15.342H21.7093C21.6514 15.342 21.6038 15.3625 21.5663 15.4033C21.5254 15.4442 21.505 15.4918 21.505 15.5497V17.3773C21.505 17.4352 21.4846 17.4828 21.4437 17.5236C21.4029 17.5645 21.3553 17.5849 21.2974 17.5849H20.7902C20.7323 17.5849 20.6847 17.5645 20.6472 17.5236C20.6064 17.4828 20.5859 17.4352 20.5859 17.3773V15.5497C20.5859 15.4918 20.6064 15.4442 20.6472 15.4033C20.6847 15.3625 20.7323 15.342 20.7902 15.342H21.2974C21.3553 15.342 21.4029 15.3216 21.4437 15.2808C21.4846 15.2433 21.505 15.1957 21.505 15.1378V15.0832C21.505 15.0253 21.5254 14.9777 21.5663 14.9368C21.6038 14.8993 21.6514 14.8789 21.7093 14.8789H23.6015C23.6594 14.8789 23.707 14.8993 23.7445 14.9368L24.5545 15.7501C24.5953 15.791 24.6158 15.8386 24.6158 15.8965V17.377C24.6158 17.4349 24.5953 17.4825 24.5545 17.5234C24.5136 17.5643 24.466 17.5847 24.4081 17.5847H23.9012V17.5849Z" fill="#F7F7F7"/>
<path d="M26.0079 17.5804C25.9516 17.5804 25.9055 17.5607 25.8658 17.521L25.0797 16.7315C25.0434 16.6918 25.0234 16.6457 25.0234 16.5895V15.6052C25.0234 15.549 25.0431 15.5029 25.0828 15.4632C25.1191 15.4235 25.1655 15.4038 25.2215 15.4038H25.7137C25.7699 15.4038 25.8161 15.3841 25.8557 15.3445C25.8954 15.3082 25.9151 15.2587 25.9151 15.2024V15.1529C25.9151 15.0967 25.9348 15.0505 25.9745 15.0109C26.0108 14.9712 26.0572 14.9515 26.1132 14.9515H27.8405C27.8967 14.9515 27.9429 14.9318 27.9825 14.8922C28.0222 14.8559 28.0419 14.8095 28.0419 14.7535V14.2014C28.0419 14.1452 28.0616 14.099 28.1013 14.0594C28.1376 14.0197 28.1839 14 28.2399 14H28.7322C28.7884 14 28.8345 14.0197 28.8742 14.0594C28.9139 14.099 28.9336 14.1452 28.9336 14.2014V17.379C28.9336 17.4352 28.9139 17.4814 28.8742 17.521C28.8345 17.5607 28.7884 17.5804 28.7322 17.5804H26.0079ZM27.983 17.0685C28.0227 17.0288 28.0424 16.9827 28.0424 16.9264V15.6052C28.0424 15.549 28.0227 15.5029 27.983 15.4632C27.9434 15.4235 27.8972 15.4038 27.841 15.4038H26.1136C26.0574 15.4038 26.0112 15.4235 25.975 15.4632C25.9353 15.5029 25.9156 15.549 25.9156 15.6052V16.6918C25.9156 16.7481 25.9353 16.7942 25.975 16.8339L26.2062 17.0685C26.2458 17.1081 26.292 17.1278 26.3482 17.1278H27.8412C27.8972 17.1278 27.9434 17.1081 27.983 17.0685Z" fill="#F7F7F7"/>
<path d="M14.9348 17.5701C14.8857 17.5701 14.8466 17.5537 14.8139 17.5177C14.7778 17.485 14.7615 17.4458 14.7615 17.3968V16.5635C14.7615 16.5145 14.7451 16.4753 14.7124 16.4392L14.6406 16.3705C14.6079 16.3345 14.5687 16.3181 14.5197 16.3181H12.7618C12.7128 16.3181 12.6736 16.3345 12.6409 16.3671C12.6049 16.4032 12.5885 16.4424 12.5885 16.4914V17.3965C12.5885 17.4456 12.5722 17.4847 12.5395 17.5174C12.5035 17.5535 12.4643 17.5698 12.4152 17.5698H11.8139C11.7649 17.5698 11.7257 17.5535 11.693 17.5174C11.657 17.4847 11.6406 17.4456 11.6406 17.3965V14.6816C11.6406 14.636 11.657 14.5968 11.693 14.5607C11.7257 14.5247 11.7649 14.5083 11.8139 14.5083H12.4119C12.4609 14.5083 12.5001 14.492 12.5361 14.4559C12.5688 14.4232 12.5852 14.3841 12.5852 14.335V14.2045C12.5852 14.1555 12.6015 14.1163 12.6376 14.0803C12.6703 14.0476 12.7094 14.0312 12.7585 14.0312H14.5392C14.5882 14.0312 14.6274 14.0476 14.6634 14.0803C14.6961 14.1163 14.7124 14.1555 14.7124 14.2045V14.3353C14.7124 14.3843 14.7288 14.4235 14.7648 14.4562C14.7975 14.4922 14.8367 14.5086 14.8824 14.5086H15.4837C15.5327 14.5086 15.5719 14.5249 15.608 14.561C15.6406 14.597 15.657 14.6362 15.657 14.6819V15.4334C15.657 15.4824 15.6406 15.5216 15.608 15.5543L15.0951 16.0706H15.1278L15.657 16.6065C15.693 16.6426 15.7094 16.6817 15.7094 16.7274V17.3972C15.7094 17.4463 15.693 17.4855 15.6604 17.5181C15.6243 17.5542 15.5851 17.5705 15.5361 17.5705H14.9348V17.5701ZM14.5916 15.7894L14.6603 15.7206C14.6963 15.6846 14.7127 15.6454 14.7127 15.5964V14.6816C14.7127 14.636 14.6963 14.5968 14.6637 14.5607C14.6276 14.5247 14.5884 14.5083 14.5394 14.5083H12.7618C12.7128 14.5083 12.6736 14.5247 12.6409 14.5607C12.6049 14.5968 12.5885 14.636 12.5885 14.6816V15.6685C12.5885 15.7175 12.6049 15.7567 12.6409 15.7894C12.6736 15.8254 12.7128 15.8417 12.7618 15.8417H14.4675C14.5163 15.8417 14.5557 15.8254 14.5916 15.7894Z" fill="#F7F7F7"/>
<path d="M6.96552 14.6315V15.707C6.96552 15.732 6.95566 15.7561 6.93788 15.7739L6.48459 16.2271C6.3524 16.3593 6.12648 16.2656 6.12648 16.0788V14.8161C6.12624 14.8115 6.12624 14.807 6.126 14.8026C6.11879 14.7063 6.10918 14.6241 6.09668 14.6082C6.06327 14.5683 6.0265 14.5505 5.98059 14.5505H3.2801C3.12268 14.5505 2.99554 14.4214 3.00876 14.2645C3.02005 14.1294 3.13326 14.0234 3.27121 14.0234H6.26997C6.32164 14.0451 6.36755 14.0641 6.41946 14.0854L6.96552 14.6315Z" fill="#F7F7F7"/>
<path d="M11.23 15.5016C11.23 15.5607 11.2094 15.609 11.1676 15.6506L10.2944 16.5271V16.5374H8.82566C8.77038 16.5374 8.72183 16.5168 8.68001 16.4752C8.63868 16.4372 8.61777 16.3884 8.61777 16.3295V16.2743C8.61777 16.2154 8.63868 16.1671 8.68001 16.1253C8.72183 16.0837 8.77038 16.063 8.82566 16.063H9.84063C9.89615 16.063 9.9447 16.0421 9.98628 16.0041L10.2333 15.757C10.2725 15.7179 10.2944 15.6648 10.2944 15.609V15.4948C10.2944 15.4357 10.274 15.3874 10.2321 15.3458C10.1908 15.3042 10.1423 15.2836 10.0834 15.2836H8.34426C8.28513 15.2836 8.23682 15.3042 8.19885 15.3458C8.19741 15.3473 8.19596 15.3487 8.19452 15.3501C8.164 15.3819 8.1491 15.4259 8.15366 15.4696C8.15463 15.4795 8.15535 15.4895 8.15535 15.4999C8.15535 15.5364 8.14862 15.5715 8.13636 15.6039C8.12146 15.6438 8.09815 15.6797 8.06858 15.7092L7.87679 15.901L7.65712 16.1209L7.45403 16.3238L7.27401 16.5038L6.81424 16.9633V16.9636L6.23429 17.5438C6.21987 17.5582 6.20064 17.5661 6.18021 17.5661H3.15021C3.10984 17.5661 3.07499 17.549 3.04615 17.5115C3.01466 17.4774 3 17.4366 3 17.3854V15.8998C3 15.7412 3.12858 15.6124 3.28745 15.6124H3.68978C3.84841 15.6124 3.97723 15.7409 3.97723 15.8998V16.8845C3.97723 16.9359 3.99189 16.9768 4.02362 17.014C4.05246 17.0515 4.08731 17.0686 4.13057 17.0686H5.83748C5.8519 17.0686 5.86512 17.0669 5.87762 17.0631H5.87786L5.93795 17.003L6.78828 16.1524L7.65015 15.2908C7.65255 15.2884 7.65495 15.2862 7.65736 15.2838C7.70999 15.2345 7.78113 15.2043 7.85924 15.2043C7.90659 15.2043 7.95154 15.2153 7.99119 15.2353C8.01955 15.2494 8.0544 15.2444 8.07675 15.2218C8.07699 15.2216 8.077 15.2216 8.07724 15.2213C8.11545 15.1833 8.13636 15.1348 8.13636 15.0759V15.0204C8.13636 14.9618 8.15703 14.913 8.19885 14.8714C8.23682 14.8332 8.28513 14.8125 8.34426 14.8125H10.0937C10.1528 14.8125 10.2011 14.8332 10.2427 14.8714C10.2843 14.913 10.305 14.9618 10.305 15.0204V15.0759C10.305 15.1348 10.3259 15.1833 10.3675 15.2213C10.4054 15.2629 10.454 15.2838 10.5129 15.2838H11.0222C11.081 15.2838 11.133 15.3045 11.1709 15.3461C11.2094 15.3908 11.23 15.4427 11.23 15.5016Z" fill="#F7F7F7"/>
</svg>
