<svg width="1440" height="1197" viewBox="0 0 1440 1197" fill="none" xmlns="http://www.w3.org/2000/svg">
<g filter="url(#filter0_f_7341_445)">
<path d="M899.089 309.108C880.685 262.267 813.313 267.905 781.928 276.58C725.862 250.557 758.567 231.04 781.928 224.534C825.439 211.356 928.619 185 993.245 185C1057.87 185 1292.66 268.282 1401.97 238.924V434.216C1334.74 429.546 1190.97 425.509 1153.74 446.727C1107.2 473.25 922.093 367.659 899.089 309.108Z" fill="url(#paint0_linear_7341_445)"/>
<path d="M899.089 309.108C880.685 262.267 813.313 267.905 781.928 276.58C725.862 250.557 758.567 231.04 781.928 224.534C825.439 211.356 928.619 185 993.245 185C1057.87 185 1292.66 268.282 1401.97 238.924V434.216C1334.74 429.546 1190.97 425.509 1153.74 446.727C1107.2 473.25 922.093 367.659 899.089 309.108Z" stroke="#8F8FBF"/>
</g>
<g style="mix-blend-mode:difference" filter="url(#filter1_f_7341_445)">
<path d="M1143.38 395.713C1149.92 396.783 1156.61 397.799 1163.42 398.762C1245.93 367.314 1312.53 341.372 1353.07 324.072C1361.85 309.604 1375.49 299.79 1393.97 300.622C1397.02 300.759 1397.23 301.825 1394.83 303.744C1398.63 304.071 1403.55 305.773 1409.7 309.031C1410.81 313.489 1403.07 321.416 1387.87 332.192C1410.22 404.725 1542.67 591.398 1614.97 603C1711.77 618.533 1618.64 661.436 1559.97 680.946C1528.16 682.584 1342.26 536.51 1199.89 435.053C836.951 613.722 120.366 911.277 11.4707 895C-123.678 874.799 721.272 567.061 1153.45 402.558C1150.05 400.23 1146.69 397.947 1143.38 395.713C1080.99 385.506 1032.5 370.335 1031.71 347.864C1030.96 326.244 1077.51 351.272 1143.38 395.713Z" fill="url(#paint1_linear_7341_445)" fill-opacity="0.5"/>
<path d="M1409.7 416C1484.87 417.032 1034.11 416.749 1031.71 347.864C1029.31 278.978 1507.14 683.667 1559.97 680.946C1618.64 661.436 1711.77 618.533 1614.97 603C1518.17 587.467 1313.54 258.098 1409.7 309.031C1423.04 362.59 159.067 917.061 11.4707 895C-173.024 867.423 1468.97 303.999 1393.97 300.622C1318.97 297.245 1323.7 469.184 1409.7 416Z" stroke="#8F8FBF"/>
</g>
<g filter="url(#filter2_df_7341_445)">
<path d="M1375.44 319.028C1384.1 297.152 1308.73 231.746 1330.6 240.403C1352.48 249.06 1429.62 278.093 1420.96 299.969C1412.3 321.844 1389.98 370.593 1368.11 361.937C1346.23 353.28 1366.78 340.903 1375.44 319.028Z" fill="#8F8FBF"/>
<path d="M1375.91 319.212C1377.05 316.324 1376.78 312.779 1375.58 308.866C1374.37 304.946 1372.2 300.59 1369.44 296.037C1363.91 286.929 1355.96 276.948 1348.45 267.945C1346.1 265.132 1343.8 262.417 1341.62 259.853C1336.82 254.193 1332.65 249.27 1330 245.664C1329.04 244.357 1328.3 243.238 1327.8 242.329C1327.55 241.875 1327.37 241.484 1327.25 241.155C1327.13 240.821 1327.1 240.582 1327.1 240.423C1327.11 240.279 1327.15 240.235 1327.18 240.214C1327.22 240.18 1327.34 240.123 1327.6 240.119C1328.15 240.112 1329.06 240.33 1330.42 240.868C1331.47 241.281 1332.64 241.741 1333.92 242.245C1346.05 247.012 1368.09 255.667 1387 265.671C1397.45 271.203 1406.92 277.128 1413.23 283.016C1419.57 288.939 1422.53 294.637 1420.49 299.785C1416.17 310.713 1408.44 328.328 1399.08 342.121C1394.39 349.021 1389.32 354.929 1384.09 358.572C1378.87 362.209 1373.55 363.553 1368.29 361.472C1362.86 359.323 1360.21 356.997 1359.27 354.482C1358.34 351.968 1359.04 349.093 1360.77 345.664C1362.07 343.088 1363.9 340.284 1365.93 337.179C1366.6 336.157 1367.29 335.103 1367.99 334.013C1370.8 329.634 1373.72 324.726 1375.91 319.212Z" stroke="#8F8FBF"/>
</g>
<g filter="url(#filter3_df_7341_445)">
<path d="M1390.83 300.705C1395.87 287.977 1366.73 263.439 1379.47 268.481C1392.21 273.523 1405.77 291.896 1400.73 304.623C1395.7 317.351 1402.54 337.287 1389.8 332.245C1377.06 327.204 1385.79 313.433 1390.83 300.705Z" fill="#8F8FBF"/>
<path d="M1391.29 300.889C1392.63 297.508 1391.68 293.423 1389.84 289.384C1388 285.325 1385.2 281.188 1382.67 277.639C1382.1 276.839 1381.54 276.072 1381.01 275.342C1380.36 274.443 1379.75 273.6 1379.2 272.818C1378.2 271.4 1377.44 270.235 1377.03 269.383C1376.82 268.95 1376.73 268.649 1376.72 268.461C1376.71 268.393 1376.72 268.359 1376.72 268.346C1376.73 268.346 1376.73 268.345 1376.73 268.345C1376.79 268.315 1376.99 268.273 1377.46 268.363C1377.9 268.449 1378.5 268.636 1379.29 268.946C1385.54 271.42 1392.04 277.193 1396.35 283.939C1400.66 290.698 1402.7 298.295 1400.27 304.439C1398.98 307.693 1398.46 311.385 1398.19 314.981C1398.06 316.73 1397.99 318.465 1397.93 320.12L1397.92 320.266C1397.85 321.969 1397.78 323.582 1397.66 325.055C1397.53 326.529 1397.35 327.843 1397.05 328.947C1396.75 330.054 1396.35 330.913 1395.81 331.511C1395.28 332.095 1394.6 332.453 1393.68 332.53C1392.74 332.609 1391.54 332.396 1389.99 331.781C1386.9 330.559 1385.17 328.837 1384.34 326.792C1383.5 324.726 1383.54 322.249 1384.14 319.463C1384.74 316.679 1385.89 313.643 1387.21 310.487C1387.71 309.299 1388.24 308.091 1388.77 306.875C1389.64 304.881 1390.51 302.867 1391.29 300.889Z" stroke="#8F8FBF"/>
</g>
<defs>
<filter id="filter0_f_7341_445" x="600.471" y="34.5" width="952" height="566.923" filterUnits="userSpaceOnUse" color-interpolation-filters="sRGB">
<feFlood flood-opacity="0" result="BackgroundImageFix"/>
<feBlend mode="normal" in="SourceGraphic" in2="BackgroundImageFix" result="shape"/>
<feGaussianBlur stdDeviation="75" result="effect1_foregroundBlur_7341_445"/>
</filter>
<filter id="filter1_f_7341_445" x="-303.5" y="0.0727539" width="2260.92" height="1196.07" filterUnits="userSpaceOnUse" color-interpolation-filters="sRGB">
<feFlood flood-opacity="0" result="BackgroundImageFix"/>
<feBlend mode="normal" in="SourceGraphic" in2="BackgroundImageFix" result="shape"/>
<feGaussianBlur stdDeviation="150" result="effect1_foregroundBlur_7341_445"/>
</filter>
<filter id="filter2_df_7341_445" x="1226.6" y="139.619" width="295.029" height="323.336" filterUnits="userSpaceOnUse" color-interpolation-filters="sRGB">
<feFlood flood-opacity="0" result="BackgroundImageFix"/>
<feColorMatrix in="SourceAlpha" type="matrix" values="0 0 0 0 0 0 0 0 0 0 0 0 0 0 0 0 0 0 127 0" result="hardAlpha"/>
<feOffset dy="4"/>
<feGaussianBlur stdDeviation="20"/>
<feComposite in2="hardAlpha" operator="out"/>
<feColorMatrix type="matrix" values="0 0 0 0 0 0 0 0 0 0 0 0 0 0 0 0 0 0 0.25 0"/>
<feBlend mode="normal" in2="BackgroundImageFix" result="effect1_dropShadow_7341_445"/>
<feBlend mode="normal" in="SourceGraphic" in2="effect1_dropShadow_7341_445" result="shape"/>
<feGaussianBlur stdDeviation="50" result="effect2_foregroundBlur_7341_445"/>
</filter>
<filter id="filter3_df_7341_445" x="1336.22" y="227.809" width="105.593" height="149.237" filterUnits="userSpaceOnUse" color-interpolation-filters="sRGB">
<feFlood flood-opacity="0" result="BackgroundImageFix"/>
<feColorMatrix in="SourceAlpha" type="matrix" values="0 0 0 0 0 0 0 0 0 0 0 0 0 0 0 0 0 0 127 0" result="hardAlpha"/>
<feOffset dy="4"/>
<feGaussianBlur stdDeviation="20"/>
<feComposite in2="hardAlpha" operator="out"/>
<feColorMatrix type="matrix" values="0 0 0 0 0 0 0 0 0 0 0 0 0 0 0 0 0 0 0.25 0"/>
<feBlend mode="normal" in2="BackgroundImageFix" result="effect1_dropShadow_7341_445"/>
<feBlend mode="normal" in="SourceGraphic" in2="effect1_dropShadow_7341_445" result="shape"/>
<feGaussianBlur stdDeviation="20" result="effect2_foregroundBlur_7341_445"/>
</filter>
<linearGradient id="paint0_linear_7341_445" x1="1131.97" y1="373" x2="1076.47" y2="450.924" gradientUnits="userSpaceOnUse">
<stop offset="0.740226" stop-color="#434359" stop-opacity="0"/>
<stop offset="0.740326" stop-color="#8F8FBF"/>
</linearGradient>
<linearGradient id="paint1_linear_7341_445" x1="1098.47" y1="174" x2="1220.97" y2="442.5" gradientUnits="userSpaceOnUse">
<stop offset="0.352953" stop-color="#A7A7A7" stop-opacity="0"/>
<stop offset="1" stop-color="#8F8FBF"/>
</linearGradient>
</defs>
</svg>
