<svg width="331" height="52" viewBox="0 0 331 52" fill="none" xmlns="http://www.w3.org/2000/svg">
<path d="M205.687 50.0308C204.896 50.0308 204.246 49.7519 203.686 49.1943C203.128 48.6366 202.849 47.9839 202.849 47.1929V22.2113C202.849 21.4202 202.571 20.7696 202.058 20.2099C201.501 19.6522 200.848 19.3734 200.057 19.3734H179.031C178.24 19.3734 177.589 19.6522 177.029 20.2099L173.727 23.5126C173.169 24.0703 172.89 24.7229 172.89 25.514V37.5637C172.89 38.3548 173.169 39.0054 173.727 39.5651L177.029 42.8678C177.587 43.38 178.24 43.6588 179.031 43.6588H193.592C194.383 43.6588 195.034 43.9377 195.593 44.4954C196.106 45.0531 196.384 45.7057 196.384 46.4967V47.1949C196.384 47.9859 196.106 48.6366 195.593 49.1962C195.036 49.7539 194.383 50.0328 193.592 50.0328H174.193C173.402 50.0328 172.752 49.7539 172.239 49.1962L161.167 38.0779C160.609 37.5657 160.33 36.9151 160.33 36.124V26.9557C160.33 26.1646 160.609 25.514 161.167 24.9543L172.239 13.836C172.752 13.3238 173.402 13.0449 174.193 13.0449H200.059C200.85 13.0449 201.501 13.3238 202.06 13.836C202.573 14.3937 202.851 15.0463 202.851 15.8374V16.5809C202.851 17.372 203.13 18.0226 203.688 18.5349C204.246 19.0926 204.898 19.3714 205.689 19.3714H212.621C213.412 19.3714 214.063 19.6502 214.622 20.2079C215.135 20.7656 215.413 21.4183 215.413 22.2093V47.1909C215.413 47.982 215.135 48.6326 214.622 49.1923C214.065 49.75 213.412 50.0288 212.621 50.0288H205.687V50.0308Z" fill="#E3D8D8"/>
<path d="M265.333 49.7639C264.554 49.7639 263.911 49.489 263.407 48.9392C262.857 48.3894 262.582 47.7467 262.582 46.9675V25.6011C262.582 24.8219 262.307 24.1791 261.757 23.6293L258.502 20.3741C257.952 19.8244 257.31 19.5495 256.53 19.5495H235.805C235.026 19.5495 234.383 19.8244 233.879 20.3741C233.329 20.9239 233.054 21.5667 233.054 22.3459V46.9675C233.054 47.7467 232.779 48.3894 232.229 48.9392C231.679 49.489 231.037 49.7639 230.257 49.7639H223.425C222.646 49.7639 222.003 49.489 221.499 48.9392C220.949 48.3894 220.674 47.7467 220.674 46.9675V22.3459C220.674 21.5667 220.949 20.9239 221.499 20.3741C222.003 19.8244 222.646 19.5495 223.425 19.5495H230.257C231.037 19.5495 231.679 19.2746 232.229 18.7248C232.779 18.2205 233.054 17.5778 233.054 16.7986V16.0649C233.054 15.2857 233.329 14.6429 233.879 14.0932C234.383 13.5889 235.026 13.314 235.805 13.314H261.299C262.078 13.314 262.72 13.5889 263.225 14.0932L274.137 25.0513C274.687 25.6011 274.962 26.2438 274.962 27.023V46.9675C274.962 47.7467 274.687 48.3894 274.137 48.9392C273.588 49.489 272.945 49.7639 272.166 49.7639H265.333Z" fill="#E3D8D8"/>
<path d="M290.755 50.0301C289.998 50.0301 289.375 49.7631 288.841 49.2292L278.251 38.5934C277.762 38.0594 277.495 37.4365 277.495 36.681V23.4209C277.495 22.6635 277.762 22.0405 278.296 21.5066C278.785 20.9726 279.407 20.7056 280.165 20.7056H286.796C287.551 20.7056 288.174 20.4386 288.708 19.9047C289.242 19.4162 289.509 18.7478 289.509 17.9903V17.3219C289.509 16.5664 289.776 15.9435 290.31 15.4095C290.799 14.8755 291.422 14.6086 292.179 14.6086H315.452C316.207 14.6086 316.83 14.3416 317.364 13.8076C317.898 13.3191 318.165 12.6962 318.165 11.9387V4.51071C318.165 3.75328 318.432 3.1323 318.966 2.59636C319.457 2.06239 320.078 1.79541 320.835 1.79541H327.466C328.222 1.79541 328.845 2.06239 329.379 2.59636C329.913 3.13032 330.18 3.75328 330.18 4.51071V47.3168C330.18 48.0722 329.913 48.6972 329.379 49.2311C328.845 49.7651 328.222 50.0321 327.466 50.0321H290.755V50.0301ZM317.364 43.1341C317.898 42.6001 318.165 41.9771 318.165 41.2197V23.4209C318.165 22.6635 317.898 22.0405 317.364 21.5066C316.83 20.9726 316.207 20.7056 315.452 20.7056H292.179C291.424 20.7056 290.801 20.9726 290.31 21.5066C289.776 22.0405 289.509 22.6635 289.509 23.4209V38.0594C289.509 38.8149 289.776 39.4398 290.31 39.9738L293.425 43.1341C293.959 43.668 294.582 43.935 295.337 43.935H315.45C316.207 43.935 316.83 43.668 317.364 43.1341Z" fill="#E3D8D8"/>
<path d="M41.5234 11.4365C41.5266 11.4397 41.5266 11.4428 41.5266 11.4428L41.5234 11.4365Z" fill="#E3D8D8"/>
<path d="M95.0847 46.212C95.0847 46.3208 95.0748 46.4256 95.057 46.5265C95.0293 46.6827 94.9838 46.831 94.9186 46.9714L94.7465 47.272V47.274L94.5409 47.63C94.525 47.6577 94.5072 47.6814 94.4855 47.7052L91.1492 51.4192C91.1373 51.433 91.1255 51.4469 91.1116 51.4607C91.0068 51.5655 90.8605 51.6308 90.7003 51.6308H64.1524C63.9527 51.6308 63.7766 51.5299 63.6718 51.3757L63.0746 50.5905L53.7737 38.3351C53.6472 38.169 53.6531 37.9376 53.7876 37.7774L57.9782 32.7562C58.1562 32.5426 58.4924 32.5386 58.6625 32.7581C58.6644 32.7601 58.6644 32.7601 58.6664 32.7621L66.7451 43.4117L66.757 43.4275C66.8361 43.5659 66.931 43.6925 67.0417 43.8052L67.0457 43.8092C67.3858 44.1553 67.8585 44.3689 68.3806 44.3689H93.2158C94.2482 44.3708 95.0847 45.1955 95.0847 46.212Z" fill="#E3D8D8"/>
<path d="M91.8298 19.9365H86.5555C86.0116 19.9365 85.5706 20.3775 85.5706 20.9214V25.8971C85.5706 26.1424 84.8982 26.9572 84.1823 27.7541C84.1289 27.8135 84.0755 27.8728 84.0221 27.9321C83.9529 28.0093 83.852 28.0528 83.7492 28.0528H68.3137C67.3367 28.1141 66.5635 28.9269 66.5635 29.9197V31.5077C66.5635 33.6099 68.2682 35.3147 70.3704 35.3147H84.034C84.4869 35.3147 84.9022 35.1545 85.2245 34.8875C85.2364 34.8776 85.2482 34.8677 85.2581 34.8578L85.448 34.668C85.4579 34.6581 85.4678 34.6462 85.4777 34.6344L94.2327 25.8793C94.2663 25.8418 94.2979 25.8042 94.3316 25.7666C94.555 25.4601 94.6856 25.0824 94.6856 24.673V22.7922C94.6856 21.2161 93.406 19.9365 91.8298 19.9365ZM82.4835 29.1029C82.4835 29.0989 82.4815 29.097 82.4795 29.093C82.4815 29.093 82.4835 29.093 82.4855 29.095C82.4835 29.097 82.4835 29.1009 82.4835 29.1029Z" fill="#E3D8D8"/>
<path d="M82.4877 29.0957C82.4853 29.0981 82.4853 29.103 82.4853 29.1054C82.4853 29.1005 82.4829 29.0981 82.4805 29.0933C82.4829 29.0933 82.4853 29.0933 82.4877 29.0957Z" fill="#E3D8D8"/>
<path d="M66.2456 42.3311C66.2504 42.3383 66.2528 42.3431 66.2577 42.3504L66.2432 42.3311H66.2456Z" fill="#E3D8D8"/>
<path d="M49.3185 22.6519L45.5016 27.2262C45.2089 27.5743 44.6591 27.5842 44.3842 27.2222C44.3823 27.2183 44.3803 27.2163 44.3783 27.2143L41.6571 23.6289L34.9667 14.8106C34.9568 14.7987 34.9469 14.7868 34.939 14.775L34.8678 14.682C34.8579 14.6702 34.85 14.6583 34.8421 14.6464C34.6503 14.3656 34.5237 14.0353 34.4881 13.6794V12.0122C34.4881 11.5 34.1737 11.0788 33.5448 10.7188C32.9535 10.3787 32.2692 10.1967 31.4485 10.1769C31.399 10.175 31.3476 10.175 31.2962 10.175H3.19191C2.30395 10.175 1.57025 9.995 0.943335 9.66474C0.314445 9.30283 0 8.88159 0 8.36938V1.80559C0 1.29536 0.314445 0.874118 0.943335 0.541874C1.57025 0.179965 2.30395 0 3.19191 0H31.2962C32.1842 0 32.9179 0.179965 33.5448 0.541874C33.5883 0.563628 33.6298 0.58736 33.6694 0.611091C34.2152 0.93147 34.4881 1.33095 34.4881 1.80559V8.36938C34.4881 8.88159 34.8006 9.30283 35.4295 9.66474C36.005 9.995 36.7901 10.175 37.68 10.175H38.4651C39.3551 10.175 40.0868 10.3569 40.7157 10.7188C40.7651 10.7485 40.8126 10.7762 40.8581 10.8058C40.9016 10.8335 40.9412 10.8652 40.9787 10.9027L41.487 11.4031C41.5127 11.4288 41.5344 11.4545 41.5562 11.4822L49.3402 21.7402C49.5459 22.0131 49.538 22.3909 49.3185 22.6519Z" fill="#E3D8D8"/>
<path d="M85.5744 15.7525V19.7236C85.5744 20.2338 85.159 20.6491 84.6488 20.6491H64.3088C64.2079 20.6491 64.113 20.6966 64.0517 20.7757L63.9785 20.8686L56.6375 29.6672L55.0237 31.5993L52.8879 34.1584L51.8615 35.3885L44.1388 44.6419L39.8354 49.7996C39.8354 49.8015 39.8354 49.8015 39.8335 49.8015L39.7207 49.938C39.7188 49.94 39.7168 49.942 39.7148 49.9439C39.3727 50.3177 38.8822 50.5511 38.3364 50.5511H3.20949C2.32153 50.5511 1.58783 50.3711 0.960914 50.0092C0.332023 49.677 0.0175781 49.2557 0.0175781 48.7455V44.2582C0.0175781 43.746 0.332023 43.3248 0.960914 42.9629C1.58783 42.6326 2.32153 42.4526 3.20949 42.4526H32.4015C32.4529 42.4526 32.5043 42.4526 32.5538 42.4506C33.1312 42.4368 35.2908 42.3577 36.7226 42.1936L37.3476 41.446L47.3584 29.4516L49.1442 27.3098L49.8858 26.4199L51.0566 25.0177L52.1324 23.7303L54.7034 20.6491L55.9157 19.1955C56.4022 18.6121 56.6691 17.8765 56.6691 17.1151V15.2581C56.6691 14.2237 57.5057 13.3872 58.538 13.3872H83.2091C84.5143 13.3872 85.5744 14.4472 85.5744 15.7525Z" fill="#E3D8D8"/>
<path d="M34.4766 13.4617C34.4766 13.3885 34.4805 13.3153 34.4884 13.2441V13.6792C34.4805 13.608 34.4766 13.5349 34.4766 13.4617Z" fill="#E3D8D8"/>
<path d="M82.4877 29.0957C82.4853 29.0981 82.4853 29.103 82.4853 29.1054C82.4853 29.1005 82.4829 29.0981 82.4805 29.0933C82.4829 29.0933 82.4853 29.0933 82.4877 29.0957Z" fill="#E3D8D8"/>
<path d="M145.481 49.7507C144.82 49.7507 144.292 49.5312 143.851 49.0467C143.367 48.6057 143.147 48.0776 143.147 47.4171V36.192C143.147 35.5315 142.928 35.0034 142.487 34.5189L141.518 33.5953C141.077 33.1108 140.549 32.8913 139.888 32.8913H116.208C115.547 32.8913 115.019 33.1108 114.578 33.5518C114.094 34.0364 113.874 34.5644 113.874 35.2249V47.4191C113.874 48.0796 113.655 48.6076 113.214 49.0486C112.729 49.5332 112.201 49.7527 111.54 49.7527H103.44C102.78 49.7527 102.251 49.5332 101.81 49.0486C101.326 48.6076 101.106 48.0796 101.106 47.4191V10.8366C101.106 10.2196 101.326 9.69158 101.81 9.20706C102.251 8.72254 102.78 8.50302 103.44 8.50302H111.495C112.156 8.50302 112.684 8.2835 113.168 7.79898C113.609 7.35797 113.829 6.82994 113.829 6.1694V4.4093C113.829 3.74877 114.048 3.22074 114.533 2.73622C114.974 2.2952 115.502 2.07568 116.162 2.07568H140.153C140.814 2.07568 141.342 2.2952 141.826 2.73622C142.267 3.22074 142.487 3.74877 142.487 4.4093V6.1694C142.487 6.82994 142.706 7.35797 143.191 7.79898C143.632 8.2835 144.16 8.50302 144.775 8.50302H152.875C153.536 8.50302 154.064 8.72254 154.548 9.20706C154.989 9.69158 155.209 10.2196 155.209 10.8366V20.9602C155.209 21.6207 154.989 22.1488 154.548 22.5898L147.636 29.5451H148.077L155.209 36.7635C155.693 37.2481 155.913 37.7761 155.913 38.3931V47.4171C155.913 48.0776 155.693 48.6057 155.252 49.0467C154.768 49.5312 154.24 49.7507 153.579 49.7507H145.481ZM140.857 25.7599L141.781 24.8364C142.265 24.3518 142.485 23.8238 142.485 23.1633V10.8366C142.485 10.2196 142.265 9.69158 141.824 9.20706C141.34 8.72254 140.812 8.50302 140.151 8.50302H116.208C115.547 8.50302 115.019 8.72254 114.578 9.20706C114.094 9.69158 113.874 10.2196 113.874 10.8366V24.1304C113.874 24.7909 114.094 25.3189 114.578 25.7599C115.019 26.2445 115.547 26.464 116.208 26.464H139.186C139.845 26.464 140.375 26.2445 140.857 25.7599Z" fill="#E3D8D8"/>
</svg>
