<svg width="120" height="17" viewBox="0 0 120 17" fill="none" xmlns="http://www.w3.org/2000/svg">
<path d="M20.6022 10.7431L19.7695 11.5746V11.5691L22.5576 8.78101V8.78656L21.5415 9.80374L20.6022 10.7431Z" fill="#E3D8D8"/>
<path d="M37.0782 15.2532V15.4966C37.0782 15.7735 36.9803 16.0013 36.7847 16.1959C36.5901 16.3904 36.3623 16.4883 36.1021 16.4883H23.0111C22.7355 16.4883 22.5076 16.3904 22.3119 16.1959L19.784 13.6457C19.7751 13.6368 19.7695 13.6235 19.7695 13.6102V12.4896C19.7695 12.4763 19.7751 12.464 19.784 12.454L22.084 10.154C22.2586 9.97945 22.5576 10.1028 22.5576 10.3507V12.1305C22.5576 12.4073 22.6543 12.6352 22.85 12.8287L24.0039 13.9837C24.1984 14.1626 24.4263 14.2605 24.6875 14.2605H36.1021C36.3623 14.2605 36.589 14.3572 36.7847 14.5528C36.9792 14.7485 37.0782 14.9764 37.0782 15.2532Z" fill="#E3D8D8"/>
<path d="M76.1778 16.5606C75.9066 16.5606 75.6831 16.465 75.4908 16.2727C75.2996 16.0815 75.2029 15.8569 75.2029 15.5857V7.00916C75.2029 6.73791 75.1073 6.51447 74.9316 6.32215C74.7404 6.13094 74.5159 6.03423 74.2446 6.03423H67.0255C66.7542 6.03423 66.5308 6.12983 66.3385 6.32215L65.2046 7.45605C65.0134 7.64726 64.9166 7.87181 64.9166 8.14306V12.2796C64.9166 12.5508 65.0122 12.7743 65.2046 12.9666L66.3385 14.1005C66.5297 14.2761 66.7542 14.3717 67.0255 14.3717H72.0246C72.2959 14.3717 72.5193 14.4673 72.7116 14.6596C72.8873 14.8508 72.9829 15.0754 72.9829 15.3467V15.5868C72.9829 15.858 72.8873 16.0815 72.7116 16.2738C72.5204 16.465 72.2959 16.5617 72.0246 16.5617H65.3646C65.0934 16.5617 64.87 16.4661 64.6943 16.2738L60.8924 12.4563C60.7012 12.2807 60.6045 12.0572 60.6045 11.786V8.63997C60.6045 8.36873 60.7001 8.14528 60.8924 7.95296L64.6943 4.1355C64.87 3.95986 65.0934 3.86426 65.3646 3.86426H74.2457C74.517 3.86426 74.7404 3.95986 74.9327 4.1355C75.1084 4.32671 75.204 4.55127 75.204 4.82251V5.0782C75.204 5.34944 75.2996 5.57289 75.4919 5.74853C75.6831 5.93974 75.9077 6.03645 76.1789 6.03645H78.559C78.8302 6.03645 79.0537 6.13206 79.246 6.32437C79.4217 6.51558 79.5173 6.74014 79.5173 7.01138V15.589C79.5173 15.8602 79.4217 16.0837 79.246 16.276C79.0548 16.4672 78.8302 16.5639 78.559 16.5639H76.1778V16.5606Z" fill="#E3D8D8"/>
<path d="M96.6556 16.5804C96.3877 16.5804 96.1676 16.486 95.9942 16.297C95.8052 16.108 95.7107 15.8879 95.7107 15.62V8.28409C95.7107 8.01618 95.6162 7.79607 95.4272 7.60709L94.31 6.48986C94.121 6.30088 93.9009 6.20639 93.633 6.20639H86.5172C86.2493 6.20639 86.0292 6.30088 85.8558 6.48986C85.6668 6.67885 85.5723 6.89896 85.5723 7.16687V15.62C85.5723 15.8879 85.4778 16.108 85.2888 16.297C85.0998 16.486 84.8797 16.5804 84.6118 16.5804H82.2662C81.9983 16.5804 81.7782 16.486 81.6048 16.297C81.4158 16.108 81.3213 15.8879 81.3213 15.62V7.16687C81.3213 6.89896 81.4158 6.67885 81.6048 6.48986C81.7782 6.30088 81.9983 6.20639 82.2662 6.20639H84.6118C84.8797 6.20639 85.0998 6.1119 85.2888 5.92291C85.4778 5.74949 85.5723 5.52938 85.5723 5.26147V5.00912C85.5723 4.74121 85.6668 4.5211 85.8558 4.33212C86.0292 4.1587 86.2493 4.06421 86.5172 4.06421H95.2694C95.5373 4.06421 95.7574 4.1587 95.9308 4.33212L99.6771 8.094C99.8661 8.28298 99.9606 8.50309 99.9606 8.771V15.6189C99.9606 15.8868 99.8661 16.1069 99.6771 16.2959C99.4881 16.4848 99.268 16.5793 99.0001 16.5793H96.6556V16.5804Z" fill="#E3D8D8"/>
<path d="M106.4 16.5605C106.14 16.5605 105.926 16.4693 105.743 16.2859L102.107 12.6341C101.939 12.4507 101.847 12.2372 101.847 11.9771V7.42481C101.847 7.16468 101.938 6.95124 102.121 6.76782C102.289 6.58439 102.504 6.49324 102.763 6.49324H105.039C105.3 6.49324 105.513 6.40208 105.696 6.21866C105.88 6.0508 105.971 5.82179 105.971 5.56166V5.33266C105.971 5.07253 106.062 4.85909 106.246 4.67566C106.413 4.49224 106.628 4.40108 106.887 4.40108H114.877C115.137 4.40108 115.35 4.30993 115.534 4.1265C115.717 3.95864 115.808 3.74409 115.808 3.48507V0.931576C115.808 0.671446 115.899 0.458006 116.083 0.274581C116.251 0.0911566 116.465 0 116.724 0H119.001C119.261 0 119.474 0.0911566 119.658 0.274581C119.841 0.458006 119.932 0.671446 119.932 0.931576V15.6289C119.932 15.889 119.841 16.1025 119.658 16.2859C119.474 16.4693 119.261 16.5605 119.001 16.5605H106.4ZM115.536 14.1926C115.719 14.0092 115.81 13.7958 115.81 13.5356V7.42481C115.81 7.16468 115.719 6.95124 115.536 6.76782C115.352 6.58439 115.139 6.49324 114.879 6.49324H106.889C106.629 6.49324 106.416 6.58439 106.248 6.76782C106.064 6.95124 105.973 7.16468 105.973 7.42481V12.4507C105.973 12.7108 106.064 12.9242 106.248 13.1076L107.317 14.1926C107.501 14.3761 107.714 14.4672 107.974 14.4672H114.88C115.139 14.4672 115.352 14.3761 115.536 14.1926Z" fill="#E3D8D8"/>
<path d="M55.173 16.5171C54.9462 16.5171 54.765 16.4415 54.6138 16.2747C54.4471 16.1236 54.3715 15.9424 54.3715 15.7156V11.8614C54.3715 11.6347 54.2959 11.4535 54.1447 11.2867L53.8123 10.9688C53.6611 10.802 53.4799 10.7264 53.2532 10.7264H45.1224C44.8957 10.7264 44.7145 10.802 44.5633 10.9532C44.3965 11.12 44.3209 11.3012 44.3209 11.5279V15.7145C44.3209 15.9412 44.2453 16.1224 44.0942 16.2736C43.9274 16.4404 43.7462 16.516 43.5194 16.516H40.738C40.5113 16.516 40.3301 16.4404 40.1789 16.2736C40.0121 16.1224 39.9365 15.9412 39.9365 15.7145V3.15709C39.9365 2.94588 40.0121 2.76467 40.1789 2.59792C40.3301 2.43117 40.5113 2.35558 40.738 2.35558H43.5039C43.7306 2.35558 43.9118 2.27999 44.0786 2.11324C44.2298 1.96205 44.3054 1.78085 44.3054 1.55407V0.950436C44.3054 0.723657 44.381 0.542455 44.5477 0.375706C44.6989 0.224519 44.8801 0.148926 45.1069 0.148926H53.3432C53.57 0.148926 53.7512 0.224519 53.9179 0.375706C54.0691 0.542455 54.1447 0.723657 54.1447 0.950436V1.55518C54.1447 1.78196 54.2203 1.96316 54.3871 2.11435C54.5382 2.2811 54.7194 2.35669 54.9307 2.35669H57.7121C57.9388 2.35669 58.12 2.43229 58.2868 2.59904C58.438 2.76579 58.5136 2.94699 58.5136 3.1582V6.63438C58.5136 6.86116 58.438 7.04236 58.2868 7.19355L55.9145 9.58141H56.0657L58.5136 12.0604C58.6803 12.2272 58.7559 12.4084 58.7559 12.6196V15.7178C58.7559 15.9446 58.6803 16.1258 58.5291 16.277C58.3624 16.4437 58.1812 16.5193 57.9544 16.5193H55.173V16.5171ZM53.5855 8.28076L53.9035 7.96282C54.0702 7.79607 54.1458 7.61487 54.1458 7.38809V3.15709C54.1458 2.94588 54.0702 2.76467 53.919 2.59792C53.7523 2.43117 53.5711 2.35558 53.3443 2.35558H45.1224C44.8957 2.35558 44.7145 2.43117 44.5633 2.59792C44.3965 2.76467 44.3209 2.94588 44.3209 3.15709V7.72159C44.3209 7.94837 44.3965 8.12957 44.5633 8.28076C44.7145 8.44751 44.8957 8.5231 45.1224 8.5231H53.0119C53.2376 8.5231 53.4199 8.44751 53.5855 8.28076Z" fill="#E3D8D8"/>
<path d="M18.3467 2.93117V7.90587C18.3467 8.02148 18.3012 8.13265 18.2189 8.21491L16.1223 10.3115C15.5109 10.9229 14.4659 10.4894 14.4659 9.62562V3.78493C14.4648 3.7638 14.4648 3.74268 14.4637 3.72267C14.4303 3.27689 14.3859 2.8967 14.3281 2.82333C14.1735 2.6388 14.0035 2.55653 13.7911 2.55653H1.30046C0.572318 2.55653 -0.0157526 1.95957 0.045389 1.23365C0.0976372 0.608897 0.621232 0.118652 1.25933 0.118652H15.1296C15.3686 0.218702 15.5809 0.306524 15.821 0.405462L18.3467 2.93117Z" fill="#E3D8D8"/>
<path d="M38.0668 6.9391C38.0668 7.21257 37.9711 7.43601 37.7777 7.62833L33.739 11.6826V11.7304H26.9457C26.69 11.7304 26.4654 11.6348 26.272 11.4425C26.0808 11.2668 25.9841 11.0411 25.9841 10.7688V10.5131C25.9841 10.2407 26.0808 10.0173 26.272 9.82387C26.4654 9.63155 26.69 9.53595 26.9457 9.53595H31.6402C31.897 9.53595 32.1216 9.43923 32.3139 9.26359L33.4567 8.1208C33.6379 7.9396 33.739 7.69392 33.739 7.43601V6.90797C33.739 6.6345 33.6446 6.41106 33.4511 6.21874C33.2599 6.02642 33.0354 5.93082 32.763 5.93082H24.719C24.4455 5.93082 24.2221 6.02642 24.0464 6.21874C24.0398 6.22541 24.0331 6.23208 24.0264 6.23875C23.8852 6.38549 23.8163 6.58892 23.8374 6.79125C23.8419 6.83682 23.8452 6.88351 23.8452 6.93132C23.8452 7.10029 23.8141 7.26259 23.7574 7.41267C23.6885 7.5972 23.5806 7.76284 23.4439 7.89958L22.5568 8.78669L21.5407 9.80386L20.6014 10.7421L19.7687 11.5747L17.6421 13.7002V13.7014L14.9597 16.3849C14.893 16.4516 14.804 16.4883 14.7096 16.4883H0.694791C0.508031 16.4883 0.34684 16.4094 0.21344 16.236C0.0678116 16.0781 0 15.8891 0 15.6523V8.78113C0 8.04743 0.594741 7.45158 1.32955 7.45158H3.19048C3.92418 7.45158 4.52003 8.04632 4.52003 8.78113V13.3356C4.52003 13.5735 4.58784 13.7625 4.73458 13.9348C4.86798 14.1082 5.02917 14.1872 5.22927 14.1872H13.1243C13.191 14.1872 13.2522 14.1794 13.31 14.1616H13.3111L13.589 13.8837L17.5221 9.94949L21.5085 5.96417C21.5196 5.95305 21.5307 5.94305 21.5418 5.93193C21.7853 5.70404 22.1144 5.56397 22.4756 5.56397C22.6946 5.56397 22.9025 5.6151 23.086 5.70737C23.2171 5.77296 23.3783 5.74962 23.4817 5.64512C23.4828 5.64401 23.4828 5.64401 23.4839 5.6429C23.6607 5.46725 23.7574 5.2427 23.7574 4.97034V4.71354C23.7574 4.4423 23.853 4.21663 24.0464 4.02431C24.2221 3.84756 24.4455 3.75195 24.719 3.75195H32.8108C33.0843 3.75195 33.3077 3.84756 33.5 4.02431C33.6924 4.21663 33.788 4.4423 33.788 4.71354V4.97034C33.788 5.2427 33.8847 5.46725 34.077 5.6429C34.2526 5.83521 34.4772 5.93193 34.7495 5.93193H37.1052C37.3775 5.93193 37.6176 6.02753 37.7933 6.21985C37.9712 6.42662 38.0668 6.66674 38.0668 6.9391Z" fill="#E3D8D8"/>
</svg>
